<?xml version="1.0" encoding="UTF-8"?>
<svg xmlns="http://www.w3.org/2000/svg" width="198.05mm" height="200.00mm" viewBox="198.05 600.00 198.05 200.00">
<!-- Laser: schnitt=rot Plattenrand, raster=blau Kachelgrenze(Score), strassen=schwarz, baechle=cyan, haeuser=grau. Datenbasis (c) OpenStreetMap ODbL. -->
<g fill="none" stroke-linecap="round" stroke-linejoin="round">
<g stroke="#999999" stroke-width="0.3">
<path d="M 321.29,775.11 L 319.73,774.35 L 316.82,772.83 L 314.06,781.90 L 317.73,782.39 L 319.11,782.58 L 321.29,775.11 L 321.29,775.11"/>
<path d="M 328.67,800.00 L 328.48,799.78 L 329.00,795.50 L 346.33,795.53 L 346.11,800.00"/>
<path d="M 357.01,800.00 L 357.13,791.05 L 360.80,791.12 L 363.30,791.33 L 363.23,792.11 L 363.20,793.70 L 367.68,793.87 L 367.81,800.00"/>
<path d="M 368.43,735.92 L 356.37,728.46 L 351.83,735.55 L 361.79,742.27 L 363.84,743.53 L 368.43,735.92 L 368.43,735.92"/>
<path d="M 338.69,759.50 L 343.38,750.44 L 355.71,755.75 L 358.36,756.83 L 356.76,761.36 L 355.24,765.60 L 353.84,765.01 L 350.29,763.51 L 338.69,759.50 L 338.69,759.50"/>
<path d="M 348.54,740.57 L 351.83,735.55 L 361.79,742.27 L 360.89,743.89 L 359.53,746.34 L 348.54,740.57 L 348.54,740.57"/>
<path d="M 377.28,800.00 L 376.82,793.64 L 379.31,793.63 L 380.61,792.71 L 389.06,793.11 L 396.11,793.29 L 395.98,800.00"/>
<path d="M 396.11,792.98 L 396.11,793.29 L 395.98,800.00"/>
<path d="M 366.94,779.73 L 352.84,776.81 L 354.08,772.41 L 350.52,771.45 L 350.04,772.23 L 348.50,771.60 L 349.41,768.75 L 352.01,769.00 L 361.35,772.06 L 367.57,774.11 L 368.54,770.18 L 369.77,766.10 L 371.17,761.86 L 372.86,757.36 L 374.16,757.75 L 377.52,751.64 L 381.87,741.75 L 387.21,743.60 L 383.48,753.83 L 382.16,757.96 L 379.54,766.47 L 377.14,776.99 L 376.47,787.44 L 376.27,791.60 L 366.52,791.50 L 366.94,779.73 L 366.94,779.73"/>
<path d="M 333.18,771.08 L 336.88,763.46 L 349.41,768.75 L 348.50,771.60 L 350.04,772.23 L 350.52,771.45 L 354.08,772.41 L 352.84,776.81 L 345.87,775.36 L 344.85,775.02 L 333.18,771.08 L 333.18,771.08"/>
<path d="M 343.38,750.44 L 346.11,744.89 L 356.84,750.75 L 357.83,751.34 L 355.71,755.75 L 343.38,750.44 L 343.38,750.44"/>
<path d="M 367.81,800.00 L 367.68,793.87 L 367.86,793.16 L 376.82,793.64 L 377.28,800.00"/>
<path d="M 396.11,771.44 L 396.00,772.21 L 396.11,772.23"/>
<path d="M 346.11,744.89 L 348.54,740.57 L 359.53,746.34 L 356.84,750.75 L 346.11,744.89 L 346.11,744.89"/>
<path d="M 346.11,800.00 L 346.33,795.53 L 346.53,790.35 L 357.13,791.05 L 357.01,800.00"/>
<path d="M 390.16,760.97 L 391.08,755.91 L 393.90,745.75 L 387.21,743.60 L 383.48,753.83 L 382.16,757.96 L 385.32,759.15 L 390.16,760.97 L 390.16,760.97"/>
<path d="M 336.88,763.46 L 338.69,759.50 L 350.29,763.51 L 349.74,766.81 L 349.41,768.75 L 336.88,763.46 L 336.88,763.46"/>
<path d="M 396.11,746.27 L 393.90,745.75 L 391.08,755.91 L 390.16,760.97 L 389.62,763.81 L 395.29,764.41 L 396.11,761.92"/>
<path d="M 367.76,710.52 L 375.75,698.64 L 378.76,700.71 L 385.42,705.37 L 388.84,707.77 L 392.15,709.96 L 389.57,713.78 L 389.33,714.43 L 389.70,714.72 L 385.99,722.13 L 382.08,719.65 L 377.75,716.89 L 370.87,712.54 L 367.76,710.52 L 367.76,710.52"/>
<path d="M 396.11,730.20 L 393.08,740.67 L 396.11,741.34"/>
<path d="M 396.11,704.26 L 392.15,709.96 L 395.52,712.44 L 396.11,711.54"/>
<path d="M 363.77,717.06 L 367.76,710.52 L 370.87,712.54 L 377.75,716.89 L 382.08,719.65 L 378.27,725.90 L 373.81,723.17 L 366.69,718.81 L 363.77,717.06 L 363.77,717.06"/>
<path d="M 393.08,740.67 L 386.49,738.70 L 389.78,728.31 L 391.91,729.09 L 392.84,726.74 L 394.50,727.30 L 394.72,726.95 L 395.20,727.04 L 396.11,727.34"/>
<path d="M 396.11,730.20 L 393.08,740.67 L 393.08,740.67"/>
<path d="M 388.84,707.77 L 392.15,709.96 L 396.11,704.26"/>
<path d="M 396.11,701.05 L 394.15,699.76 L 390.21,705.71 L 388.84,707.77 L 388.84,707.77"/>
<path d="M 386.49,738.70 L 380.41,736.97 L 380.70,736.02 L 382.98,728.30 L 383.34,728.31 L 385.90,722.36 L 387.55,723.25 L 386.12,726.90 L 389.78,728.31 L 386.49,738.70 L 386.49,738.70"/>
<path d="M 396.11,725.55 L 395.20,727.04 L 396.11,727.34"/>
<path d="M 380.70,736.02 L 369.87,730.30 L 361.84,726.06 L 359.20,724.52 L 363.77,717.06 L 366.69,718.81 L 373.81,723.17 L 378.27,725.90 L 382.08,719.65 L 385.99,722.13 L 385.90,722.36 L 383.34,728.31 L 382.98,728.30 L 380.70,736.02 L 380.70,736.02"/>
<path d="M 394.15,699.76 L 384.03,693.03 L 380.80,697.73 L 387.41,702.36 L 386.79,703.31 L 390.21,705.71 L 394.15,699.76 L 394.15,699.76"/>
<path d="M 396.11,674.94 L 392.06,681.22 L 396.11,684.12"/>
<path d="M 275.16,755.77 L 275.71,753.65 L 288.69,754.85 L 287.19,759.91 L 286.60,760.30 L 285.33,768.23 L 272.72,766.39 L 275.16,755.77 L 275.16,755.77"/>
<path d="M 225.09,703.57 L 219.92,698.39 L 228.10,689.59 L 241.95,675.07 L 243.79,672.93 L 256.20,684.87 L 251.87,688.93 L 257.03,694.55 L 251.35,699.74 L 245.38,693.25 L 244.51,693.09 L 243.46,692.02 L 243.43,690.79 L 244.60,689.90 L 241.72,687.15 L 225.09,703.57 L 225.09,703.57"/>
<path d="M 363.74,687.02 L 369.52,676.77 L 365.97,674.87 L 354.14,668.45 L 352.64,671.17 L 348.65,678.44 L 349.57,678.97 L 350.94,679.78 L 360.35,685.11 L 363.74,687.02 L 363.74,687.02"/>
<path d="M 298.09,675.54 L 295.37,674.31 L 291.31,672.25 L 287.98,670.56 L 286.57,670.11 L 284.07,675.62 L 282.75,678.29 L 280.26,680.21 L 289.83,685.02 L 288.05,688.50 L 290.73,689.87 L 288.47,694.36 L 296.56,698.49 L 306.06,679.65 L 298.09,675.54 L 298.09,675.54"/>
<path d="M 281.38,708.21 L 296.56,698.49 L 288.47,694.36 L 287.69,693.96 L 276.86,701.29 L 281.38,708.21 L 281.38,708.21"/>
<path d="M 301.21,651.47 L 314.33,653.88 L 315.23,653.89 L 313.48,664.55 L 309.46,672.74 L 306.06,679.65 L 298.09,675.54 L 300.58,669.30 L 299.46,668.25 L 299.13,667.22 L 299.35,666.23 L 300.17,665.33 L 301.11,664.94 L 301.08,664.42 L 299.80,664.24 L 300.38,662.23 L 299.16,662.01 L 301.21,651.47 L 301.21,651.47"/>
<path d="M 294.43,650.48 L 301.21,651.47 L 299.16,662.01 L 294.31,661.13 L 293.00,661.00 L 294.43,650.48 L 294.43,650.48"/>
<path d="M 266.73,650.20 L 274.09,649.98 L 274.36,664.63 L 266.92,664.98 L 267.00,660.07 L 266.73,650.20 L 266.73,650.20"/>
<path d="M 250.85,650.87 L 257.25,650.56 L 258.15,662.31 L 258.31,664.13 L 256.73,666.04 L 252.42,671.64 L 248.63,668.62 L 251.13,665.35 L 251.84,664.41 L 251.35,660.07 L 250.85,650.87 L 250.85,650.87"/>
<path d="M 274.09,649.98 L 279.83,649.77 L 280.06,665.86 L 274.38,666.04 L 274.36,664.63 L 274.09,649.98 L 274.09,649.98"/>
<path d="M 257.25,650.56 L 266.73,650.20 L 267.00,660.07 L 264.91,659.99 L 264.88,662.15 L 258.15,662.31 L 257.25,650.56 L 257.25,650.56"/>
<path d="M 268.69,688.92 L 262.98,682.14 L 262.02,681.01 L 268.50,674.98 L 269.47,675.98 L 270.42,676.95 L 275.94,683.47 L 268.69,688.92 L 268.69,688.92"/>
<path d="M 287.25,649.63 L 287.94,649.71 L 294.43,650.48 L 293.00,661.00 L 292.25,666.76 L 288.14,665.96 L 286.67,665.94 L 287.25,649.63 L 287.25,649.63"/>
<path d="M 279.83,649.77 L 287.25,649.63 L 286.67,665.94 L 280.06,665.86 L 279.83,649.77 L 279.83,649.77"/>
<path d="M 262.02,681.01 L 252.42,671.64 L 256.73,666.04 L 260.85,667.27 L 264.02,670.45 L 265.43,669.09 L 270.15,673.60 L 268.50,674.98 L 262.02,681.01 L 262.02,681.01"/>
<path d="M 274.00,696.37 L 271.42,692.75 L 268.69,688.92 L 275.94,683.47 L 278.60,687.34 L 280.32,689.85 L 281.49,691.51 L 274.00,696.37 L 274.00,696.37"/>
<path d="M 266.57,613.17 L 265.89,617.15 L 263.31,635.33 L 263.18,635.99 L 255.90,635.26 L 247.31,634.62 L 249.99,611.05 L 253.09,611.45 L 254.05,603.69 L 254.51,602.16 L 255.29,600.99 L 256.21,600.17 L 256.54,600.00"/>
<path d="M 261.69,600.00 L 262.75,600.70 L 263.50,601.63 L 264.14,603.05 L 264.31,604.64 L 263.26,612.74 L 266.57,613.17 L 266.57,613.17"/>
<path d="M 361.99,644.21 L 364.78,637.48 L 368.07,639.39 L 367.40,640.48 L 364.54,645.59 L 372.01,649.80 L 370.88,651.56 L 366.38,659.43 L 357.83,654.51 L 361.99,644.21 L 361.99,644.21"/>
<path d="M 377.80,660.49 L 379.70,657.52 L 373.29,653.24 L 371.78,655.48 L 377.80,660.49 L 377.80,660.49"/>
<path d="M 372.01,649.80 L 370.88,651.56 L 373.29,653.24 L 379.70,657.52 L 383.26,651.23 L 368.92,641.55 L 367.40,640.48 L 364.54,645.59 L 372.01,649.80 L 372.01,649.80"/>
<path d="M 396.11,711.54 L 395.52,712.44 L 396.11,712.81"/>
<path d="M 396.11,715.72 L 395.87,716.05 L 396.11,716.20"/>
<path d="M 247.83,600.00 L 245.16,612.43 L 240.60,611.66 L 240.78,606.97 L 228.93,605.22 L 228.93,603.67 L 218.70,600.75 L 217.45,605.41 L 212.88,604.33 L 207.71,605.19 L 201.08,602.37 L 200.44,602.08 L 200.50,600.00"/>
<path d="M 238.10,636.50 L 241.72,636.19 L 243.59,636.01 L 243.92,622.43 L 239.17,622.38 L 238.34,622.38 L 238.10,636.50 L 238.10,636.50"/>
<path d="M 212.92,635.86 L 219.53,636.68 L 220.54,625.87 L 217.40,625.71 L 214.40,625.36 L 212.92,635.86 L 212.92,635.86"/>
<path d="M 198.05,632.93 L 205.04,634.62 L 207.25,621.99 L 202.59,621.26 L 202.30,622.69 L 199.97,622.15 L 199.64,623.33 L 198.05,632.84"/>
<path d="M 205.04,634.62 L 212.92,635.86 L 214.40,625.36 L 214.69,622.93 L 207.25,621.99 L 205.04,634.62 L 205.04,634.62"/>
<path d="M 219.53,636.68 L 238.10,636.50 L 238.34,622.38 L 234.95,622.19 L 234.91,624.96 L 220.36,624.36 L 220.54,625.87 L 219.53,636.68 L 219.53,636.68"/>
<path d="M 198.05,632.84 L 199.64,623.33 L 198.05,622.80"/>
<path d="M 316.55,745.55 L 312.94,743.51 L 312.14,742.92 L 311.39,743.02 L 306.69,736.43 L 299.37,726.74 L 304.22,720.51 L 303.73,720.13 L 305.85,717.32 L 306.78,716.02 L 315.49,727.80 L 317.29,730.60 L 322.75,733.91 L 316.55,745.55 L 316.55,745.55"/>
<path d="M 312.24,682.47 L 308.06,690.33 L 316.34,694.39 L 322.28,697.59 L 326.31,689.50 L 320.44,686.55 L 312.24,682.47 L 312.24,682.47"/>
<path d="M 348.11,684.60 L 345.25,689.41 L 357.79,696.58 L 358.68,696.24 L 361.00,691.85 L 348.11,684.60 L 348.11,684.60"/>
<path d="M 335.48,700.23 L 331.93,705.92 L 347.94,714.86 L 351.07,708.90 L 335.48,700.23 L 335.48,700.23"/>
<path d="M 308.06,690.33 L 306.19,694.39 L 314.31,698.40 L 320.24,701.65 L 322.28,697.59 L 316.34,694.39 L 308.06,690.33 L 308.06,690.33"/>
<path d="M 331.44,676.55 L 334.79,678.40 L 341.25,665.32 L 337.62,663.41 L 331.44,676.55 L 331.44,676.55"/>
<path d="M 338.52,694.26 L 354.11,703.30 L 351.07,708.90 L 335.48,700.23 L 338.52,694.26 L 338.52,694.26"/>
<path d="M 303.73,720.13 L 305.85,717.32 L 301.95,715.24 L 300.17,717.72 L 303.73,720.13 L 303.73,720.13"/>
<path d="M 335.48,700.23 L 328.97,696.57 L 325.74,702.43 L 331.93,705.92 L 335.48,700.23 L 335.48,700.23"/>
<path d="M 295.25,715.29 L 293.95,717.66 L 292.23,720.76 L 293.49,723.51 L 294.75,725.65 L 299.72,718.21 L 295.25,715.29 L 295.25,715.29"/>
<path d="M 338.05,680.08 L 340.59,681.43 L 342.42,677.83 L 339.94,676.54 L 338.05,680.08 L 338.05,680.08"/>
<path d="M 338.52,694.26 L 335.48,700.23 L 328.97,696.57 L 332.06,690.95 L 338.52,694.26 L 338.52,694.26"/>
<path d="M 363.74,687.02 L 361.00,691.85 L 348.11,684.60 L 350.94,679.78 L 360.35,685.11 L 363.74,687.02 L 363.74,687.02"/>
<path d="M 322.75,733.91 L 333.62,739.79 L 339.13,730.10 L 328.88,724.27 L 322.75,733.91 L 322.75,733.91"/>
<path d="M 334.79,678.40 L 338.05,680.08 L 339.94,676.54 L 344.87,667.08 L 341.25,665.32 L 334.79,678.40 L 334.79,678.40"/>
<path d="M 320.20,719.47 L 315.49,727.80 L 317.29,730.60 L 322.75,733.91 L 328.88,724.27 L 320.20,719.47 L 320.20,719.47"/>
<path d="M 325.74,702.43 L 319.66,712.89 L 319.94,712.99 L 342.02,725.43 L 347.94,714.86 L 331.93,705.92 L 325.74,702.43 L 325.74,702.43"/>
<path d="M 297.14,712.12 L 295.25,715.29 L 299.72,718.21 L 300.17,717.72 L 301.95,715.24 L 297.14,712.12 L 297.14,712.12"/>
<path d="M 357.79,696.58 L 354.11,703.30 L 338.52,694.26 L 342.49,687.69 L 345.25,689.41 L 357.79,696.58 L 357.79,696.58"/>
<path d="M 340.59,681.43 L 343.06,682.81 L 344.96,679.26 L 343.62,678.45 L 342.42,677.83 L 340.59,681.43 L 340.59,681.43"/>
<path d="M 319.94,712.99 L 316.93,717.86 L 320.20,719.47 L 328.88,724.27 L 339.13,730.10 L 342.02,725.43 L 319.94,712.99 L 319.94,712.99"/>
<path d="M 301.01,705.32 L 299.99,707.12 L 297.14,712.12 L 301.95,715.24 L 303.44,712.15 L 306.72,713.69 L 308.13,711.09 L 308.94,709.46 L 301.01,705.32 L 301.01,705.32"/>
<path d="M 316.19,674.75 L 312.24,682.47 L 320.44,686.55 L 326.31,689.50 L 327.94,686.61 L 328.66,685.16 L 328.75,684.13 L 328.99,682.87 L 328.28,681.99 L 323.91,679.74 L 324.34,678.88 L 316.19,674.75 L 316.19,674.75"/>
<path d="M 316.19,674.75 L 324.27,657.71 L 337.62,663.41 L 331.44,676.55 L 327.43,674.78 L 326.25,675.28 L 324.34,678.88 L 316.19,674.75 L 316.19,674.75"/>
<path d="M 343.62,678.45 L 344.96,679.26 L 347.35,680.58 L 348.65,678.44 L 352.64,671.17 L 354.14,668.45 L 352.32,667.43 L 350.44,666.39 L 348.89,669.14 L 343.62,678.45 L 343.62,678.45"/>
<path d="M 305.85,717.32 L 306.78,716.02 L 307.70,714.24 L 306.72,713.69 L 303.44,712.15 L 301.95,715.24 L 305.85,717.32 L 305.85,717.32"/>
<path d="M 306.19,694.39 L 302.97,701.18 L 301.01,705.32 L 308.94,709.46 L 309.33,708.60 L 313.96,710.97 L 316.10,710.09 L 320.24,701.65 L 314.31,698.40 L 306.19,694.39 L 306.19,694.39"/>
<path d="M 294.75,725.65 L 296.15,727.26 L 297.49,728.99 L 299.37,726.74 L 304.22,720.51 L 303.73,720.13 L 300.17,717.72 L 299.72,718.21 L 294.75,725.65 L 294.75,725.65"/>
<path d="M 343.62,678.45 L 348.89,669.14 L 350.44,666.39 L 347.98,665.03 L 346.37,664.14 L 344.87,667.08 L 339.94,676.54 L 342.42,677.83 L 343.62,678.45 L 343.62,678.45"/>
<path d="M 302.99,782.61 L 303.44,780.11 L 304.91,774.04 L 305.85,770.53 L 316.63,773.02 L 316.82,772.83 L 314.06,781.90 L 313.61,783.59 L 306.10,782.30 L 305.79,784.26 L 302.76,783.77 L 302.99,782.61 L 302.99,782.61"/>
<path d="M 300.14,800.00 L 301.76,789.90 L 299.64,789.68 L 298.40,789.68 L 298.34,788.63 L 297.86,788.16 L 295.02,787.98 L 295.13,789.78 L 291.81,789.53 L 292.13,787.97 L 291.51,787.91 L 288.81,787.42 L 286.68,800.00"/>
<path d="M 257.49,754.97 L 275.16,755.77 L 272.72,766.39 L 271.92,769.74 L 271.61,779.61 L 271.47,780.74 L 270.31,781.80 L 268.07,781.95 L 264.71,781.96 L 264.73,780.70 L 258.11,780.89 L 257.49,754.97 L 257.49,754.97"/>
<path d="M 292.85,731.17 L 300.61,739.88 L 301.16,739.33 L 303.05,741.65 L 302.78,741.87 L 302.51,742.08 L 303.01,743.02 L 302.79,746.56 L 302.64,749.92 L 286.86,749.18 L 287.86,743.23 L 288.32,742.67 L 288.62,740.44 L 289.71,737.72 L 293.45,738.32 L 290.75,735.45 L 292.85,731.17 L 292.85,731.17"/>
<path d="M 268.07,781.95 L 268.06,783.75 L 264.32,783.55 L 264.27,784.81 L 262.60,795.99 L 261.91,799.80 L 273.26,800.00"/>
<path d="M 286.68,800.00 L 288.81,787.42 L 289.75,781.76 L 290.49,777.56 L 291.13,774.40 L 284.72,772.98 L 285.33,768.23 L 272.72,766.39 L 271.92,769.74 L 271.61,779.61 L 271.47,780.74 L 270.31,781.80 L 268.07,781.95 L 268.07,781.95"/>
<path d="M 270.42,676.95 L 272.68,675.08 L 278.50,681.58 L 275.94,683.47 L 270.42,676.95 L 270.42,676.95"/>
<path d="M 292.25,666.76 L 291.31,672.25 L 287.98,670.56 L 288.14,665.96 L 292.25,666.76 L 292.25,666.76"/>
<path d="M 292.42,782.49 L 289.75,781.76 L 288.81,787.42 L 291.51,787.91 L 292.35,782.87 L 292.42,782.49 L 292.42,782.49"/>
<path d="M 292.42,782.49 L 292.76,778.04 L 290.49,777.56 L 289.75,781.76 L 292.42,782.49 L 292.42,782.49"/>
<path d="M 301.76,789.90 L 299.64,789.68 L 299.81,786.88 L 299.65,786.79 L 299.87,782.58 L 302.99,782.61 L 302.76,783.77 L 301.76,789.90 L 301.76,789.90"/>
<path d="M 284.62,689.79 L 282.11,688.60 L 280.32,689.85 L 281.49,691.51 L 282.03,691.12 L 283.59,691.90 L 284.62,689.79 L 284.62,689.79"/>
<path d="M 291.42,767.55 L 294.74,755.15 L 298.64,755.65 L 298.21,761.22 L 296.86,767.21 L 295.29,766.83 L 294.51,770.20 L 296.17,770.49 L 294.52,778.39 L 292.76,778.04 L 290.49,777.56 L 291.13,774.40 L 291.73,772.87 L 291.21,769.82 L 291.42,767.55 L 291.42,767.55"/>
<path d="M 287.69,693.96 L 276.86,701.29 L 274.00,696.37 L 281.49,691.51 L 282.03,691.12 L 283.59,691.90 L 287.69,693.96 L 287.69,693.96"/>
<path d="M 303.44,780.11 L 294.52,778.39 L 292.76,778.04 L 292.42,782.49 L 292.35,782.87 L 299.87,782.58 L 302.99,782.61 L 303.44,780.11 L 303.44,780.11"/>
<path d="M 288.89,769.49 L 291.21,769.82 L 291.73,772.87 L 291.13,774.40 L 284.72,772.98 L 285.33,768.23 L 286.60,760.30 L 287.19,759.91 L 288.69,754.85 L 294.74,755.15 L 291.42,767.55 L 289.35,767.07 L 288.89,769.49 L 288.89,769.49"/>
<path d="M 309.89,800.00 L 310.98,798.96 L 313.28,785.79 L 305.79,784.26 L 302.76,783.77 L 301.76,789.90 L 300.14,800.00"/>
<path d="M 303.06,767.18 L 302.94,768.02 L 301.39,767.95 L 300.60,772.56 L 302.44,772.80 L 302.34,773.67 L 304.91,774.04 L 305.85,770.53 L 304.06,770.25 L 304.70,767.45 L 303.06,767.18 L 303.06,767.18"/>
<path d="M 284.07,675.62 L 280.92,674.19 L 276.15,677.96 L 279.11,681.32 L 280.26,680.21 L 282.75,678.29 L 284.07,675.62 L 284.07,675.62"/>
<path d="M 289.39,727.29 L 292.85,731.17 L 290.75,735.45 L 289.71,737.72 L 288.62,740.44 L 283.01,738.07 L 289.39,727.29 L 289.39,727.29"/>
<path d="M 286.86,749.18 L 280.84,748.65 L 281.88,742.70 L 281.97,739.53 L 283.01,738.07 L 288.62,740.44 L 288.32,742.67 L 287.86,743.23 L 286.86,749.18 L 286.86,749.18"/>
<path d="M 279.34,734.49 L 281.93,736.34 L 280.40,738.64 L 281.97,739.53 L 283.01,738.07 L 289.39,727.29 L 286.41,723.86 L 279.34,734.49 L 279.34,734.49"/>
<path d="M 288.47,694.36 L 290.73,689.87 L 288.05,688.50 L 287.13,690.16 L 284.96,689.12 L 284.62,689.79 L 283.59,691.90 L 287.69,693.96 L 288.47,694.36 L 288.47,694.36"/>
<path d="M 305.44,763.59 L 309.83,763.68 L 320.13,766.52 L 323.34,760.40 L 323.17,760.09 L 322.84,759.48 L 320.15,758.64 L 311.64,755.97 L 310.13,761.67 L 305.78,761.75 L 305.44,763.59 L 305.44,763.59"/>
<path d="M 280.84,748.65 L 269.91,747.60 L 271.21,739.67 L 273.65,735.08 L 277.43,737.15 L 280.40,738.64 L 281.97,739.53 L 281.88,742.70 L 280.84,748.65 L 280.84,748.65"/>
<path d="M 274.21,733.80 L 273.65,735.08 L 277.43,737.15 L 279.34,734.49 L 286.41,723.86 L 283.19,720.74 L 281.18,723.00 L 277.12,728.71 L 274.21,733.80 L 274.21,733.80"/>
<path d="M 283.19,720.74 L 281.18,723.00 L 277.12,728.71 L 274.21,733.80 L 267.48,730.78 L 270.93,724.29 L 273.59,721.06 L 279.44,716.19 L 283.19,720.74 L 283.19,720.74"/>
<path d="M 320.13,766.52 L 316.82,772.83 L 316.63,773.02 L 305.85,770.53 L 304.06,770.25 L 304.70,767.45 L 305.44,763.59 L 309.83,763.68 L 320.13,766.52 L 320.13,766.52"/>
<path d="M 269.91,747.60 L 263.33,747.08 L 263.57,740.12 L 265.80,734.37 L 267.48,730.78 L 274.21,733.80 L 273.65,735.08 L 271.21,739.67 L 269.91,747.60 L 269.91,747.60"/>
<path d="M 248.63,668.62 L 245.24,666.34 L 244.27,651.45 L 250.85,650.87 L 251.35,660.07 L 249.48,660.10 L 249.62,664.04 L 251.13,665.35 L 248.63,668.62 L 248.63,668.62"/>
<path d="M 296.86,767.21 L 296.17,770.49 L 294.52,778.39 L 303.44,780.11 L 304.91,774.04 L 302.34,773.67 L 298.47,773.21 L 299.86,766.92 L 303.06,767.18 L 304.70,767.45 L 305.44,763.59 L 305.78,761.75 L 310.13,761.67 L 311.64,755.97 L 305.12,755.33 L 298.64,755.65 L 298.21,761.22 L 296.86,767.21 L 296.86,767.21"/>
<path d="M 294.31,661.13 L 294.17,663.15 L 295.09,663.37 L 294.52,667.37 L 297.51,667.94 L 295.37,674.31 L 291.31,672.25 L 292.25,666.76 L 293.00,661.00 L 294.31,661.13 L 294.31,661.13"/>
<path d="M 322.75,733.91 L 333.62,739.79 L 326.25,753.57 L 324.64,752.96 L 323.69,752.43 L 315.45,747.87 L 316.55,745.55 L 322.75,733.91 L 322.75,733.91"/>
<path d="M 392.30,601.77 L 390.03,600.00"/>
<path d="M 393.71,600.00 L 392.30,601.77 L 392.30,601.77"/>
<path d="M 212.03,720.50 L 212.17,719.79 L 211.10,719.59 L 211.90,715.74 L 212.96,715.93 L 213.12,715.20 L 212.04,715.05 L 212.80,711.33 L 213.90,711.40 L 214.05,710.67 L 212.97,710.50 L 213.76,706.64 L 214.83,706.86 L 215.01,706.00 L 213.93,705.85 L 214.74,701.89 L 215.81,702.07 L 215.95,701.41 L 214.88,701.25 L 215.69,697.25 L 216.76,697.49 L 216.91,696.75 L 215.86,696.48 L 216.64,692.65 L 217.70,692.89 L 217.83,692.23 L 216.77,692.00 L 217.57,688.11 L 218.60,688.53 L 218.77,687.65 L 217.70,687.47 L 218.50,683.57 L 219.55,683.86 L 219.71,683.10 L 218.63,682.96 L 219.48,678.85 L 220.51,679.22 L 220.66,678.48 L 219.59,678.28 L 220.43,674.20 L 221.50,674.40 L 221.66,673.64 L 220.58,673.45 L 221.39,669.52 L 222.45,669.73 L 222.59,669.09 L 221.51,668.94 L 222.33,664.94 L 223.40,665.13 L 223.51,664.58 L 222.46,664.30 L 223.29,660.29 L 224.37,660.43 L 224.46,659.96 L 223.38,659.82 L 224.21,655.78 L 225.28,655.96 L 225.44,655.21 L 224.37,654.99 L 212.58,652.55 L 198.99,649.68 L 198.05,649.46"/>
<path d="M 198.05,716.83 L 198.87,717.00 L 198.72,717.72 L 212.03,720.50 L 212.03,720.50"/>
<path d="M 357.83,654.51 L 353.54,652.65 L 346.94,649.52 L 351.14,639.12 L 361.99,644.21 L 357.83,654.51 L 357.83,654.51"/>
<path d="M 373.29,653.24 L 370.88,651.56 L 366.38,659.43 L 375.02,664.75 L 377.80,660.49 L 371.78,655.48 L 373.29,653.24 L 373.29,653.24"/>
<path d="M 268.31,617.51 L 269.55,617.62 L 288.63,619.32 L 307.46,620.96 L 316.47,623.62 L 314.55,629.94 L 319.18,631.28 L 320.72,631.74 L 318.20,639.30 L 316.80,638.89 L 312.03,637.44 L 301.50,634.17 L 287.10,634.04 L 274.14,633.99 L 266.12,634.99 L 263.31,635.33 L 265.89,617.15 L 268.31,617.51 L 268.31,617.51"/>
<path d="M 313.56,600.00 L 322.17,602.52 L 334.52,606.21 L 336.86,600.01 L 336.84,600.00"/>
<path d="M 271.19,600.00 L 268.31,617.51 L 265.89,617.15 L 266.57,613.17 L 263.26,612.74 L 264.31,604.64 L 264.14,603.05 L 263.50,601.63 L 262.75,600.70 L 261.69,600.00"/>
<path d="M 313.04,600.00 L 308.46,617.24 L 307.46,620.96 L 316.47,623.62 L 317.36,620.09 L 320.32,609.29 L 322.17,602.52 L 313.56,600.00"/>
<path d="M 390.19,648.16 L 393.25,643.87 L 389.72,641.35 L 373.97,630.34 L 373.44,629.98 L 370.93,634.51 L 386.76,645.28 L 390.19,648.16 L 390.19,648.16"/>
<path d="M 376.95,616.12 L 376.16,617.18 L 376.26,619.25 L 375.08,620.81 L 375.98,621.48 L 376.44,620.95 L 377.83,622.18 L 376.42,623.83 L 371.51,619.98 L 375.36,614.84 L 376.95,616.12 L 376.95,616.12"/>
<path d="M 373.97,630.34 L 380.09,621.86 L 380.98,622.64 L 382.48,620.60 L 381.60,619.88 L 382.71,618.65 L 381.30,617.15 L 388.74,608.04 L 396.11,613.74"/>
<path d="M 396.11,640.19 L 393.25,643.87 L 389.72,641.35 L 373.97,630.34 L 373.97,630.34"/>
<path d="M 350.47,632.27 L 353.53,633.14 L 351.58,638.60 L 351.14,639.12 L 361.99,644.21 L 364.78,637.48 L 368.07,639.39 L 370.93,634.51 L 373.44,629.98 L 376.51,624.29 L 376.42,623.83 L 371.51,619.98 L 375.36,614.84 L 365.62,607.79 L 359.41,616.96 L 354.27,613.87 L 351.40,612.19 L 350.12,614.35 L 343.60,611.41 L 340.57,618.68 L 339.44,621.55 L 343.89,623.07 L 352.28,626.31 L 350.47,632.27 L 350.47,632.27"/>
<path d="M 341.02,600.00 L 339.40,605.76 L 343.26,607.68 L 346.22,600.73 L 346.91,600.81 L 347.33,600.00"/>
<path d="M 392.30,601.77 L 396.11,604.98"/>
<path d="M 393.71,600.00 L 392.30,601.77 L 392.30,601.77"/>
<path d="M 326.54,642.52 L 334.95,619.71 L 339.44,621.55 L 343.89,623.07 L 339.67,634.92 L 335.37,645.22 L 326.54,642.52 L 326.54,642.52"/>
<path d="M 351.65,605.35 L 349.49,610.35 L 351.40,612.19 L 354.27,613.87 L 357.96,607.59 L 355.97,606.90 L 351.65,605.35 L 351.65,605.35"/>
<path d="M 351.14,639.12 L 349.04,638.10 L 350.36,634.89 L 344.77,632.91 L 345.50,630.94 L 350.18,632.69 L 350.47,632.27 L 352.28,626.31 L 343.89,623.07 L 339.67,634.92 L 335.37,645.22 L 346.94,649.52 L 351.14,639.12 L 351.14,639.12"/>
<path d="M 388.74,608.04 L 383.52,603.72 L 375.36,614.84 L 376.95,616.12 L 380.30,618.90 L 380.72,618.67 L 380.53,618.01 L 381.30,617.15 L 388.74,608.04 L 388.74,608.04"/>
<path d="M 383.52,603.72 L 378.67,600.00"/>
<path d="M 370.87,600.00 L 365.62,607.79 L 375.36,614.84 L 383.52,603.72 L 383.52,603.72"/>
<path d="M 362.68,600.00 L 361.31,601.79 L 357.96,607.59 L 354.27,613.87 L 359.41,616.96 L 365.62,607.79 L 370.87,600.00"/>
<path d="M 354.00,600.00 L 351.65,605.35 L 355.97,606.90 L 357.28,602.94 L 358.17,603.13 L 359.04,600.82 L 359.27,600.16 L 358.88,600.00"/>
<path d="M 343.60,611.41 L 345.18,608.60 L 343.26,607.68 L 339.40,605.76 L 335.85,616.98 L 334.95,619.71 L 339.44,621.55 L 340.57,618.68 L 343.60,611.41 L 343.60,611.41"/>
<path d="M 358.88,600.00 L 359.27,600.16 L 359.04,600.82 L 361.31,601.79 L 362.68,600.00"/>
<path d="M 370.93,634.51 L 386.76,645.28 L 390.19,648.16 L 386.56,653.61 L 383.26,651.23 L 368.92,641.55 L 369.70,640.40 L 368.07,639.39 L 370.93,634.51 L 370.93,634.51"/>
<path d="M 201.08,602.37 L 200.83,604.05 L 200.58,605.64 L 199.91,610.43 L 202.74,611.06 L 202.63,611.51 L 208.71,612.64 L 207.95,616.97 L 207.25,621.99 L 214.69,622.93 L 215.42,616.77 L 216.11,611.05 L 217.45,605.41 L 212.88,604.33 L 207.71,605.19 L 201.08,602.37 L 201.08,602.37"/>
<path d="M 216.11,611.05 L 222.03,612.68 L 221.21,617.76 L 221.09,618.91 L 225.71,619.24 L 226.19,619.18 L 226.91,617.64 L 227.46,609.65 L 236.96,611.03 L 236.02,620.02 L 235.16,620.06 L 234.95,622.19 L 238.34,622.38 L 239.17,622.38 L 240.60,611.66 L 240.78,606.97 L 228.93,605.22 L 228.93,603.67 L 218.70,600.75 L 217.45,605.41 L 216.11,611.05 L 216.11,611.05"/>
<path d="M 221.09,618.91 L 220.87,621.92 L 225.50,622.25 L 225.71,619.24 L 221.09,618.91 L 221.09,618.91"/>
<path d="M 198.05,610.03 L 199.91,610.43 L 200.58,605.64 L 198.05,604.69"/>
<path d="M 203.69,616.26 L 207.95,616.97 L 208.71,612.64 L 202.63,611.51 L 201.48,615.77 L 203.69,616.26 L 203.69,616.26"/>
<path d="M 216.11,611.05 L 215.42,616.77 L 218.42,617.13 L 221.21,617.76 L 222.03,612.68 L 216.11,611.05 L 216.11,611.05"/>
<path d="M 218.42,617.13 L 217.40,625.71 L 214.40,625.36 L 214.69,622.93 L 215.42,616.77 L 218.42,617.13 L 218.42,617.13"/>
<path d="M 200.82,618.44 L 199.97,622.15 L 202.30,622.69 L 202.59,621.26 L 203.69,616.26 L 201.48,615.77 L 200.82,618.44 L 200.82,618.44"/>
<path d="M 198.05,617.91 L 200.82,618.44 L 201.48,615.77 L 202.63,611.51 L 202.74,611.06 L 199.91,610.43 L 198.05,610.03"/>
<path d="M 332.37,775.41 L 333.18,771.08 L 344.85,775.02 L 344.22,778.99 L 332.37,775.41 L 332.37,775.41"/>
<path d="M 385.32,759.15 L 382.51,766.99 L 379.54,766.47 L 382.16,757.96 L 385.32,759.15 L 385.32,759.15"/>
<path d="M 389.57,713.78 L 392.93,716.16 L 395.52,712.44 L 392.15,709.96 L 389.57,713.78 L 389.57,713.78"/>
<path d="M 393.79,723.25 L 392.54,726.43 L 392.84,726.74 L 394.50,727.30 L 394.72,726.95 L 395.20,727.04 L 396.11,725.55"/>
<path d="M 396.11,724.18 L 393.79,723.25 L 393.79,723.25"/>
<path d="M 349.74,766.81 L 352.93,767.35 L 353.84,765.01 L 350.29,763.51 L 349.74,766.81 L 349.74,766.81"/>
<path d="M 346.53,790.35 L 329.79,789.85 L 329.00,795.50 L 346.33,795.53 L 346.53,790.35 L 346.53,790.35"/>
<path d="M 393.99,769.30 L 393.74,771.67 L 396.00,772.21 L 396.11,771.44"/>
<path d="M 396.11,769.63 L 393.99,769.30 L 393.99,769.30"/>
<path d="M 363.84,743.53 L 366.63,745.26 L 370.76,747.83 L 374.60,738.84 L 368.43,735.92 L 363.84,743.53 L 363.84,743.53"/>
<path d="M 360.89,743.89 L 365.99,746.76 L 364.94,748.95 L 364.03,748.46 L 359.53,746.34 L 360.89,743.89 L 360.89,743.89"/>
<path d="M 366.63,745.26 L 365.99,746.76 L 364.94,748.95 L 368.73,750.98 L 370.76,747.83 L 366.63,745.26 L 366.63,745.26"/>
<path d="M 346.25,778.49 L 345.87,775.36 L 352.84,776.81 L 351.91,784.30 L 346.82,784.26 L 347.49,778.71 L 346.25,778.49 L 346.25,778.49"/>
<path d="M 364.94,748.95 L 364.03,748.46 L 362.09,752.04 L 363.87,753.00 L 366.79,754.57 L 368.73,750.98 L 364.94,748.95 L 364.94,748.95"/>
<path d="M 359.53,746.34 L 364.03,748.46 L 362.09,752.04 L 359.34,750.82 L 358.85,751.71 L 357.83,751.34 L 356.84,750.75 L 359.53,746.34 L 359.53,746.34"/>
<path d="M 363.87,753.00 L 366.79,754.57 L 372.86,757.36 L 371.17,761.86 L 358.36,756.83 L 359.68,753.33 L 362.93,754.75 L 363.87,753.00 L 363.87,753.00"/>
<path d="M 368.54,770.18 L 369.77,766.10 L 371.17,761.86 L 358.36,756.83 L 356.76,761.36 L 360.62,762.93 L 359.73,766.78 L 368.54,770.18 L 368.54,770.18"/>
<path d="M 357.74,766.01 L 356.80,768.92 L 361.75,770.74 L 361.35,772.06 L 367.57,774.11 L 368.54,770.18 L 359.73,766.78 L 357.74,766.01 L 357.74,766.01"/>
<path d="M 331.90,777.02 L 332.37,775.41 L 344.22,778.99 L 346.10,779.63 L 346.25,778.49 L 347.49,778.71 L 346.82,784.26 L 330.73,783.93 L 331.90,777.02 L 331.90,777.02"/>
<path d="M 374.60,738.84 L 381.87,741.75 L 377.52,751.64 L 374.16,757.75 L 372.86,757.36 L 366.79,754.57 L 368.73,750.98 L 370.76,747.83 L 374.60,738.84 L 374.60,738.84"/>
<path d="M 357.83,751.34 L 358.85,751.71 L 359.34,750.82 L 362.09,752.04 L 363.87,753.00 L 362.93,754.75 L 359.68,753.33 L 358.36,756.83 L 355.71,755.75 L 357.83,751.34 L 357.83,751.34"/>
<path d="M 366.94,779.73 L 366.52,791.50 L 366.53,792.16 L 363.23,792.11 L 363.30,791.33 L 360.80,791.12 L 361.11,784.51 L 355.66,784.44 L 351.91,784.30 L 352.84,776.81 L 366.94,779.73 L 366.94,779.73"/>
<path d="M 240.93,739.16 L 247.64,737.95 L 246.94,734.42 L 249.58,734.24 L 250.30,732.36 L 251.22,729.94 L 248.78,729.00 L 247.11,726.68 L 246.26,727.35 L 242.91,730.46 L 241.33,730.39 L 240.93,739.16 L 240.93,739.16"/>
<path d="M 245.16,612.43 L 243.92,622.43 L 239.17,622.38 L 240.60,611.66 L 245.16,612.43 L 245.16,612.43"/>
<path d="M 336.84,600.00 L 336.86,600.01 L 336.86,600.00"/>
<path d="M 200.50,600.00 L 200.44,602.08 L 198.05,601.08"/>
<path d="M 378.76,700.71 L 385.42,705.37 L 386.79,703.31 L 387.41,702.36 L 380.80,697.73 L 378.76,700.71 L 378.76,700.71"/>
<path d="M 318.38,782.62 L 318.59,781.55 L 319.49,780.94 L 319.58,780.96 L 320.91,776.44 L 320.56,775.92 L 320.76,774.86 L 321.67,774.26 L 322.09,774.34 L 322.14,774.26 L 322.54,774.03 L 323.04,774.09 L 323.39,774.40 L 323.49,774.88 L 323.30,775.30 L 323.33,775.36 L 323.69,775.44 L 323.65,775.62 L 326.10,776.29 L 327.71,776.73 L 327.75,776.54 L 328.34,776.70 L 328.94,776.30 L 330.01,776.51 L 330.61,777.41 L 330.41,778.47 L 329.58,779.03 L 328.42,783.61 L 328.84,784.23 L 328.64,785.30 L 327.73,785.91 L 326.67,785.70 L 326.07,784.80 L 326.11,784.56 L 323.78,783.92 L 320.96,783.11 L 320.96,783.12 L 320.69,783.30 L 320.06,783.72 L 318.99,783.52 L 318.38,782.62 L 318.38,782.62"/>
<path d="M 320.32,609.29 L 321.90,609.69 L 320.56,614.85 L 328.64,617.01 L 330.94,608.95 L 333.46,609.63 L 334.52,606.21 L 322.17,602.52 L 320.32,609.29 L 320.32,609.29"/>
<path d="M 323.50,640.94 L 324.22,639.10 L 326.15,633.31 L 320.72,631.74 L 318.20,639.30 L 323.50,640.94 L 323.50,640.94"/>
<path d="M 203.55,796.11 L 206.62,796.56 L 206.11,800.00"/>
<path d="M 202.98,800.00 L 203.55,796.11 L 203.55,796.11"/>
<path d="M 198.94,795.28 L 202.00,795.73 L 201.36,800.00"/>
<path d="M 198.24,800.00 L 198.94,795.28 L 198.94,795.28"/>
</g>
<g stroke="#00b0d0" stroke-width="0.5">
<path d="M 228.62,792.95 L 198.05,788.25"/>
<path d="M 251.42,800.00 L 251.06,795.51 L 228.62,792.95"/>
<path d="M 396.11,689.50 L 390.00,684.41 L 384.63,678.08 L 377.69,671.47 L 370.81,664.00 L 359.04,658.82 L 338.70,649.69 L 323.15,643.35 L 303.57,639.02"/>
<path d="M 248.05,639.65 L 227.26,639.87"/>
<path d="M 227.26,639.87 L 216.85,639.20 L 207.37,638.00 L 198.47,636.44 L 198.05,636.36"/>
<path d="M 303.57,639.02 L 296.96,638.18 L 283.98,637.56 L 265.50,638.59 L 248.05,639.65"/>
<path d="M 396.11,607.78 L 386.88,600.00"/>
<path d="M 225.16,647.32 L 206.09,644.96 L 198.05,643.86"/>
<path d="M 396.11,742.29 L 393.02,741.48"/>
<path d="M 395.65,654.17 L 396.11,653.40"/>
<path d="M 303.80,751.01 L 263.36,748.70"/>
<path d="M 263.36,748.70 L 261.27,747.13 L 262.14,737.90 L 269.19,723.02 L 281.06,708.90 L 279.12,706.00"/>
<path d="M 261.47,682.91 L 243.62,666.33 L 241.35,664.06 L 241.12,657.82 L 240.92,653.57"/>
<path d="M 393.02,741.48 L 385.13,739.54 L 375.86,735.05 L 366.65,729.70 L 348.65,722.03 L 342.57,731.51"/>
<path d="M 285.79,714.62 L 281.06,708.90"/>
<path d="M 313.50,747.52 L 311.73,745.56 L 287.27,717.88 L 285.79,714.62"/>
<path d="M 317.72,660.13 L 320.60,649.94 L 323.15,643.35 L 325.99,635.37"/>
<path d="M 289.73,715.04 L 298.51,699.62 L 317.72,660.13"/>
<path d="M 287.27,717.88 L 289.73,715.04"/>
<path d="M 240.92,653.57 L 240.13,647.83 L 225.16,647.32"/>
<path d="M 342.57,731.51 L 329.14,755.96"/>
<path d="M 329.14,755.96 L 313.50,747.52 L 303.80,751.01"/>
<path d="M 320.60,649.94 L 303.04,646.55"/>
<path d="M 303.04,646.55 L 287.80,645.40 L 277.01,645.51 L 256.43,646.87 L 251.33,647.15"/>
<path d="M 251.33,647.15 L 240.13,647.83"/>
<path d="M 325.99,635.37 L 332.05,615.55 L 337.71,600.00"/>
<path d="M 279.12,706.00 L 271.12,693.64"/>
<path d="M 262.11,683.51 L 261.47,682.91"/>
<path d="M 270.48,692.82 L 262.11,683.51"/>
<path d="M 271.12,693.64 L 270.48,692.82"/>
</g>
<g stroke="#000000" stroke-width="0.6">
<path d="M 324.34,647.07 L 324.20,648.68 L 321.84,656.48 L 319.25,662.30 L 314.73,671.07 L 300.66,699.87 L 300.25,700.64 L 297.45,705.95 L 293.30,713.72 L 288.14,721.34"/>
<path d="M 230.06,800.00 L 229.11,799.83 L 220.66,798.07 L 214.18,796.77 L 205.13,794.94 L 198.05,793.52"/>
<path d="M 253.12,699.40 L 255.61,697.40"/>
<path d="M 253.12,699.40 L 250.47,701.54 L 231.50,719.15 L 229.17,721.39 L 237.19,724.42 L 244.76,728.61"/>
<path d="M 255.61,697.40 L 263.38,692.27 L 265.08,691.15"/>
<path d="M 240.67,748.88 L 241.58,748.90"/>
<path d="M 278.22,710.37 L 265.05,724.18 L 261.14,732.23 L 260.05,743.85 L 259.56,749.41"/>
<path d="M 259.56,749.41 L 261.21,751.25 L 274.86,751.53 L 316.17,753.19"/>
<path d="M 288.14,721.34 L 278.22,710.37 L 277.35,709.09 L 275.21,705.97 L 267.95,695.36 L 265.08,691.15 L 259.78,685.18 L 250.28,674.47 L 240.36,665.14 L 236.32,654.32 L 235.78,643.99 L 235.68,642.68"/>
<path d="M 251.86,600.00 L 249.02,606.92 L 246.35,621.91 L 245.63,635.25 L 245.30,641.18 L 245.34,642.54"/>
<path d="M 351.60,723.11 L 352.83,724.01 L 368.23,733.06 L 377.38,737.62 L 385.07,741.65 L 396.11,744.38"/>
<path d="M 317.73,782.39 L 316.53,792.47 L 315.57,800.00"/>
<path d="M 316.17,753.19 L 323.97,755.40 L 329.69,756.91 L 331.52,757.51"/>
<path d="M 327.53,765.42 L 321.48,771.52"/>
<path d="M 326.88,800.00 L 328.37,786.01"/>
<path d="M 321.48,771.52 L 319.73,774.35"/>
<path d="M 198.05,639.12 L 205.06,640.36 L 217.81,641.91 L 235.68,642.68"/>
<path d="M 244.32,739.98 L 244.66,741.01"/>
<path d="M 324.34,647.07 L 324.45,645.68 L 325.28,641.80 L 334.22,616.41 L 335.89,611.47 L 339.22,600.00"/>
<path d="M 396.11,695.04 L 394.46,693.84 L 390.56,690.63 L 387.83,687.44 L 382.98,682.03 L 381.91,680.95"/>
<path d="M 351.66,668.59 L 365.22,676.09 L 368.84,678.07"/>
<path d="M 347.42,666.16 L 351.66,668.59"/>
<path d="M 326.10,776.29 L 327.51,772.37"/>
<path d="M 323.78,783.92 L 326.10,776.29"/>
<path d="M 319.73,774.35 L 317.73,782.39"/>
<path d="M 319.25,800.00 L 320.91,793.98 L 323.29,785.68"/>
<path d="M 358.33,787.23 L 355.06,787.07 L 328.37,786.01"/>
<path d="M 352.84,623.92 L 347.41,621.87 L 342.54,619.99 L 340.57,618.68 L 335.85,616.98"/>
<path d="M 242.90,751.79 L 242.46,748.92 L 245.54,749.01 L 250.47,749.15 L 252.79,749.22"/>
<path d="M 242.09,748.90 L 242.46,748.92"/>
<path d="M 225.39,747.05 L 230.39,747.85 L 240.67,748.88"/>
<path d="M 244.76,728.61 L 244.37,733.61 L 244.32,739.98"/>
<path d="M 244.86,741.61 L 245.04,742.12"/>
<path d="M 350.18,658.99 L 350.90,657.70 L 353.54,652.65"/>
<path d="M 393.37,663.72 L 395.07,660.83"/>
<path d="M 395.07,660.83 L 396.11,659.28"/>
<path d="M 393.37,663.72 L 389.62,666.90 L 386.31,668.59 L 381.30,670.19 L 376.04,670.31 L 372.64,670.14 L 372.16,670.06 L 370.55,669.76"/>
<path d="M 229.11,799.83 L 229.10,800.00"/>
<path d="M 345.73,665.22 L 347.42,666.16"/>
<path d="M 368.84,678.07 L 372.25,677.93 L 374.26,677.26 L 375.59,676.29 L 375.82,676.10 L 376.42,675.40"/>
<path d="M 365.97,674.87 L 354.14,668.45 L 352.32,667.43 L 350.44,666.39 L 347.98,665.03 L 346.37,664.14 L 345.73,665.22 L 344.87,667.08 L 341.25,665.32 L 337.62,663.41 L 324.27,657.71 L 321.84,656.48 L 315.23,653.89 L 314.33,653.88 L 301.21,651.47 L 294.43,650.48 L 287.94,649.71 L 287.25,649.63 L 279.83,649.77 L 274.09,649.98 L 266.73,650.20 L 257.25,650.56 L 250.85,650.87 L 244.27,651.45 L 236.32,654.32 L 230.64,656.63 L 225.44,655.21 L 224.37,654.99 L 212.58,652.55 L 198.99,649.68 L 198.05,649.46"/>
<path d="M 198.05,632.93 L 205.04,634.62 L 212.92,635.86 L 219.53,636.68 L 238.10,636.50 L 241.72,636.19 L 243.59,636.01 L 245.63,635.25 L 247.31,634.62 L 255.90,635.26 L 263.18,635.99 L 263.31,635.33 L 266.12,634.99 L 274.14,633.99 L 287.10,634.04 L 301.50,634.17 L 312.03,637.44 L 316.80,638.89 L 318.20,639.30 L 323.50,640.94 L 325.28,641.80 L 326.54,642.52 L 335.37,645.22 L 346.94,649.52 L 353.54,652.65 L 357.83,654.51 L 366.38,659.43 L 375.02,664.75 L 372.11,668.01 L 371.19,669.04 L 370.55,669.76 L 369.66,670.76 L 368.65,671.88 L 365.97,674.87"/>
<path d="M 247.41,764.24 L 247.60,764.80 L 247.93,765.93 L 248.16,767.22 L 248.36,768.11 L 248.21,769.12 L 248.00,769.93 L 247.78,771.56 L 247.82,772.49 L 254.14,772.53 L 254.15,768.89 L 254.39,767.09 L 254.76,765.88 L 255.23,764.74 L 255.12,764.09 L 251.26,764.20 L 247.41,764.24"/>
<path d="M 327.51,772.37 L 327.53,765.42"/>
<path d="M 370.55,669.76 L 372.35,671.47 L 374.92,674.01 L 376.42,675.40 L 380.83,679.80 L 381.91,680.95"/>
<path d="M 281.38,708.21 L 278.22,710.37 L 288.14,721.34 L 300.25,700.64 L 298.51,699.62 L 296.56,698.49 L 281.38,708.21"/>
<path d="M 235.68,642.68 L 245.34,642.54 L 276.62,640.39 L 282.96,640.22 L 289.32,640.36 L 297.66,641.06 L 304.81,642.04 L 315.09,644.26 L 318.85,645.26 L 324.34,647.07"/>
<path d="M 350.18,658.99 L 357.94,663.01 L 363.18,665.67 L 370.55,669.76"/>
<path d="M 327.53,765.42 L 331.52,757.51 L 340.10,742.00 L 344.09,734.96 L 346.28,730.92 L 351.60,723.11"/>
<path d="M 351.60,723.11 L 362.56,709.82 L 365.99,705.27 L 374.46,692.54 L 377.28,688.01 L 381.11,682.12 L 381.91,680.95 L 382.70,679.80 L 390.55,668.39 L 393.37,663.72"/>
<path d="M 387.68,798.28 L 387.39,800.00"/>
<path d="M 389.68,790.99 L 389.06,793.11"/>
<path d="M 387.68,798.28 L 389.06,793.11"/>
<path d="M 396.11,780.37 L 392.88,781.43 L 389.68,790.99"/>
<path d="M 372.53,778.25 L 371.92,786.71 L 368.39,786.58 L 369.30,777.38"/>
<path d="M 381.17,752.17 L 377.12,760.18"/>
<path d="M 355.66,784.44 L 355.06,787.07"/>
<path d="M 385.07,741.65 L 384.74,742.54 L 381.17,752.17"/>
<path d="M 356.12,782.67 L 356.55,781.04"/>
<path d="M 356.12,782.67 L 355.66,784.44"/>
<path d="M 314.73,671.07 L 317.16,672.44"/>
<path d="M 317.16,672.44 L 325.43,677.12"/>
<path d="M 325.43,677.12 L 332.84,681.87 L 338.48,684.47 L 341.90,684.80 L 345.04,683.78"/>
<path d="M 230.54,791.16 L 232.35,775.34 L 228.65,758.16"/>
<path d="M 229.11,799.83 L 230.54,791.16"/>
<path d="M 250.93,751.53 L 251.18,752.80 L 251.39,753.87"/>
<path d="M 251.39,753.87 L 251.26,764.20"/>
<path d="M 251.26,764.20 L 247.78,771.56"/>
<path d="M 198.05,754.91 L 198.14,754.31 L 198.33,752.69 L 198.62,751.14"/>
<path d="M 396.11,610.57 L 382.93,600.00"/>
<path d="M 371.92,786.71 L 376.47,787.44"/>
<path d="M 315.09,644.26 L 315.54,642.90 L 316.80,638.89"/>
<path d="M 316.80,638.89 L 319.18,631.28"/>
<path d="M 308.46,617.24 L 317.36,620.09"/>
<path d="M 317.36,620.09 L 322.07,622.02 L 319.18,631.28"/>
<path d="M 308.46,617.24 L 304.62,616.62 L 276.95,613.50 L 280.20,600.00"/>
<path d="M 308.50,600.00 L 304.62,616.62"/>
<path d="M 322.07,622.02 L 327.47,623.68 L 331.83,610.23 L 333.18,610.59"/>
<path d="M 220.66,798.07 L 220.66,800.00"/>
<path d="M 297.45,705.95 L 299.99,707.12"/>
<path d="M 299.99,707.12 L 308.13,711.09"/>
<path d="M 308.13,711.09 L 315.64,714.55 L 332.84,681.87"/>
<path d="M 345.04,683.78 L 347.01,682.27 L 349.57,678.97"/>
<path d="M 377.12,760.18 L 374.56,770.38 L 372.53,778.25 L 369.30,777.38 L 358.42,773.91 L 356.55,781.04"/>
<path d="M 335.85,616.98 L 334.22,616.41"/>
<path d="M 376.47,787.44 L 389.68,790.99"/>
<path d="M 228.65,758.16 L 230.39,747.85"/>
<path d="M 198.05,749.47 L 213.56,752.21 L 215.60,752.34 L 217.06,752.06 L 218.41,751.45 L 219.55,750.69 L 220.53,746.57 L 225.39,747.05"/>
<path d="M 316.17,753.19 L 288.14,721.34"/>
<path d="M 200.83,604.05 L 198.05,602.98"/>
<path d="M 244.99,800.00 L 239.53,775.15 L 241.07,752.11 L 241.36,747.78 L 242.14,736.06 L 240.02,734.01 L 237.49,733.09 L 198.05,727.08"/>
<path d="M 252.76,750.50 L 255.23,750.78"/>
<path d="M 242.47,742.53 L 242.86,742.98"/>
<path d="M 242.01,742.00 L 242.47,742.53"/>
<path d="M 242.26,754.02 L 242.82,754.02"/>
<path d="M 241.92,754.00 L 242.26,754.02"/>
<path d="M 243.75,754.06 L 244.93,753.83"/>
<path d="M 242.82,754.02 L 243.75,754.06"/>
<path d="M 241.38,753.99 L 241.92,754.00"/>
<path d="M 240.43,753.96 L 241.38,753.99"/>
<path d="M 230.39,747.85 L 240.43,753.96"/>
<path d="M 242.90,751.79 L 243.80,752.77"/>
<path d="M 259.56,749.41 L 257.45,750.84 L 255.28,752.08 L 251.18,752.80 L 244.93,753.83 L 243.80,752.77"/>
<path d="M 250.77,750.76 L 250.93,751.53"/>
<path d="M 252.76,750.50 L 250.47,749.15 L 250.77,750.76"/>
<path d="M 252.68,742.80 L 260.05,743.85"/>
<path d="M 247.25,738.35 L 247.75,740.76"/>
<path d="M 245.54,749.01 L 245.20,743.30 L 245.04,742.12"/>
<path d="M 255.27,749.29 L 257.37,749.35 L 259.56,749.41"/>
<path d="M 252.79,749.22 L 255.27,749.29"/>
<path d="M 242.86,742.98 L 245.20,743.30 L 248.15,742.78"/>
<path d="M 241.58,748.90 L 242.09,748.90"/>
<path d="M 244.66,741.01 L 244.86,741.61"/>
<path d="M 246.48,734.52 L 247.25,738.35"/>
<path d="M 244.37,733.61 L 246.48,734.52"/>
<path d="M 241.24,741.10 L 242.01,742.00"/>
<path d="M 247.75,740.76 L 248.15,742.78 L 252.68,742.80"/>
<path d="M 240.36,665.14 L 226.94,686.46"/>
<path d="M 224.63,751.32 L 219.55,750.69 L 213.39,749.78 L 228.71,721.25 L 230.23,718.41 L 231.50,719.15 L 234.44,720.62 L 237.59,722.28 L 246.26,727.35 L 244.76,728.61 L 242.88,730.29 L 241.34,730.21 L 241.45,727.80 L 230.80,724.05 L 230.68,726.01 L 223.97,733.92 L 227.06,737.62 L 226.96,738.30 L 226.76,738.25 L 225.39,747.05 L 224.63,751.32"/>
<path d="M 242.14,736.06 L 242.49,730.99 L 240.80,727.95 L 238.16,726.90 L 206.89,721.24"/>
<path d="M 232.47,755.05 L 237.15,754.51 L 241.07,752.11"/>
<path d="M 198.05,755.51 L 230.77,759.68 L 233.36,760.53 L 235.65,762.95"/>
<path d="M 241.36,747.78 L 239.60,745.89 L 237.51,744.96 L 198.05,738.07"/>
<path d="M 198.05,749.75 L 198.86,749.88 L 232.47,755.05 L 234.67,757.19 L 235.23,759.34 L 235.65,762.95 L 236.44,775.60 L 242.44,800.00"/>
<path d="M 198.62,751.14 L 198.86,749.88"/>
<path d="M 255.23,750.78 L 257.45,750.84"/>
<path d="M 198.05,752.65 L 198.33,752.69"/>
<path d="M 324.34,647.07 L 328.94,648.95 L 338.04,653.13 L 350.18,658.99"/>
<path d="M 333.18,610.59 L 335.89,611.47"/>
<path d="M 328.37,786.01 L 330.92,776.79 L 327.51,772.37"/>
<path d="M 328.37,786.01 L 323.29,785.68"/>
<path d="M 323.29,785.68 L 323.78,783.92"/>
<path d="M 206.07,788.58 L 207.85,776.59"/>
<path d="M 205.82,790.31 L 206.07,788.58"/>
<path d="M 214.90,791.81 L 215.08,790.17"/>
<path d="M 214.18,796.77 L 214.90,791.81"/>
<path d="M 205.13,794.94 L 205.82,790.31"/>
<path d="M 220.53,746.57 L 222.96,733.69 L 229.17,721.39"/>
<path d="M 269.47,675.98 L 275.69,670.07 L 281.36,671.68"/>
<path d="M 259.78,685.18 L 262.98,682.14"/>
<path d="M 262.98,682.14 L 263.86,681.30 L 269.47,675.98"/>
<path d="M 271.42,692.75 L 278.60,687.34"/>
<path d="M 278.60,687.34 L 281.47,685.17"/>
<path d="M 267.95,695.36 L 271.42,692.75"/>
</g>
</g>
<g fill="none" stroke="#2040ff" stroke-width="0.4" stroke-dasharray="3,2">
<line x1="198.05" y1="800.00" x2="198.05" y2="600.00"/>
<line x1="396.11" y1="800.00" x2="396.11" y2="600.00"/>
<line x1="198.05" y1="800.00" x2="396.11" y2="800.00"/>
<line x1="198.05" y1="600.00" x2="396.11" y2="600.00"/>
</g>
<rect x="198.05" y="600.00" width="198.05" height="200.00" fill="none" stroke="#ff0000" stroke-width="0.4"/>
</svg>