<?xml version="1.0" encoding="UTF-8"?>
<svg xmlns="http://www.w3.org/2000/svg" width="198.05mm" height="200.00mm" viewBox="198.05 200.00 198.05 200.00">
<!-- Laser: schnitt=rot Plattenrand, raster=blau Kachelgrenze(Score), strassen=schwarz, baechle=cyan, haeuser=grau. Datenbasis (c) OpenStreetMap ODbL. -->
<g fill="none" stroke-linecap="round" stroke-linejoin="round">
<g stroke="#999999" stroke-width="0.3">
<path d="M 198.05,266.14 L 200.49,266.83 L 198.05,275.29"/>
<path d="M 276.95,297.35 L 274.39,296.86 L 273.30,302.08 L 267.15,300.79 L 274.27,268.82 L 275.28,263.41 L 276.76,247.57 L 284.76,248.22 L 291.79,249.00 L 290.56,262.94 L 290.43,264.03 L 290.31,265.02 L 291.14,295.53 L 291.18,297.45 L 291.32,303.06 L 285.04,303.14 L 284.99,297.82 L 282.25,297.83 L 279.56,297.66 L 276.95,297.35 L 276.95,297.35"/>
<path d="M 254.03,205.05 L 269.16,209.37 L 267.05,216.91 L 251.91,212.69 L 254.03,205.05 L 254.03,205.05"/>
<path d="M 331.93,210.11 L 334.21,201.78 L 328.10,200.00"/>
<path d="M 296.66,200.00 L 331.93,210.11 L 331.93,210.11"/>
<path d="M 308.17,220.70 L 288.63,215.06 L 286.19,223.45 L 305.73,229.10 L 308.17,220.70 L 308.17,220.70"/>
<path d="M 350.93,213.09 L 393.01,225.42 L 395.65,215.89 L 363.17,206.99 L 363.21,206.38 L 353.69,203.76 L 350.93,213.09 L 350.93,213.09"/>
<path d="M 199.91,330.89 L 202.85,321.02 L 198.05,319.64"/>
<path d="M 198.05,332.12 L 198.53,332.22 L 199.12,330.57 L 199.91,330.89 L 199.91,330.89"/>
<path d="M 198.05,261.49 L 199.98,262.03 L 201.86,255.40 L 203.78,255.94 L 205.67,249.27 L 203.76,248.73 L 207.34,236.11 L 209.27,236.66 L 212.88,223.95 L 211.02,223.42 L 214.59,210.85 L 216.25,211.32 L 218.07,204.92 L 216.44,204.46 L 217.71,200.00"/>
<path d="M 200.87,200.00 L 200.02,202.99 L 198.85,202.67 L 198.05,205.47"/>
<path d="M 198.05,206.25 L 198.69,206.43 L 198.05,208.68"/>
<path d="M 198.05,220.37 L 201.57,221.36 L 198.25,233.03 L 198.05,232.97"/>
<path d="M 213.05,324.02 L 210.38,332.53 L 209.81,333.66 L 199.91,330.89 L 202.85,321.02 L 213.05,324.02 L 213.05,324.02"/>
<path d="M 230.30,328.75 L 227.63,337.70 L 210.38,332.53 L 213.05,324.02 L 230.30,328.75 L 230.30,328.75"/>
<path d="M 198.05,232.97 L 198.25,233.03 L 201.57,221.36 L 198.05,220.37"/>
<path d="M 378.07,278.46 L 382.17,279.70 L 378.94,290.63 L 375.07,289.55 L 378.07,278.46 L 378.07,278.46"/>
<path d="M 303.87,237.56 L 320.83,242.71 L 319.04,248.67 L 301.67,243.66 L 303.87,237.56 L 303.87,237.56"/>
<path d="M 329.38,395.08 L 313.91,396.72 L 312.69,400.00"/>
<path d="M 300.26,400.00 L 303.70,390.71 L 305.30,385.94 L 327.98,382.73 L 329.38,395.08 L 329.38,395.08"/>
<path d="M 325.35,356.54 L 324.97,356.87 L 325.03,358.73 L 325.38,364.56 L 326.57,371.86 L 326.77,372.25 L 327.27,372.46 L 332.99,372.97 L 338.23,373.12 L 343.50,373.01 L 347.59,372.72 L 351.65,372.26 L 352.10,371.87 L 353.35,367.53 L 354.22,363.05 L 354.32,362.03 L 353.94,361.59 L 350.12,360.37 L 342.71,358.45 L 336.03,357.31 L 330.67,356.77 L 325.35,356.54 L 325.35,356.54"/>
<path d="M 338.93,400.00 L 338.96,394.25 L 345.85,393.32 L 344.24,380.64 L 340.63,381.10 L 327.98,382.73 L 329.38,395.08 L 332.66,394.73 L 332.66,400.00"/>
<path d="M 235.74,333.71 L 238.04,335.82 L 239.18,337.77 L 241.28,336.81 L 242.28,336.42 L 243.34,336.89 L 244.00,337.64 L 252.84,356.85 L 250.81,357.67 L 251.64,359.35 L 252.46,361.03 L 251.06,361.72 L 242.42,365.63 L 242.09,365.87 L 240.50,362.75 L 220.01,372.16 L 220.55,373.41 L 212.28,377.15 L 202.77,357.14 L 211.11,353.16 L 215.98,363.93 L 228.75,356.21 L 230.34,354.60 L 230.93,353.13 L 231.25,351.30 L 231.26,350.13 L 229.85,345.88 L 229.50,344.15 L 229.45,342.40 L 229.56,341.96 L 229.97,340.23 L 230.58,337.76 L 231.76,333.69 L 232.22,333.29 L 232.81,332.99 L 233.26,332.87 L 233.88,332.89 L 234.51,332.95 L 234.86,333.07 L 235.74,333.71 L 235.74,333.71"/>
<path d="M 198.05,382.22 L 200.92,373.69 L 204.52,374.95 L 203.24,378.23 L 204.81,378.71 L 202.33,385.70 L 207.09,387.23 L 204.16,395.64 L 198.05,393.33"/>
<path d="M 209.11,345.60 L 219.49,340.95 L 221.43,345.26 L 211.04,349.90 L 209.11,345.60 L 209.11,345.60"/>
<path d="M 245.79,236.65 L 252.83,238.74 L 254.21,234.02 L 255.76,234.47 L 256.79,230.98 L 248.31,228.49 L 247.82,230.17 L 246.94,229.91 L 246.23,232.34 L 246.99,232.56 L 246.26,235.05 L 245.79,236.65 L 245.79,236.65"/>
<path d="M 382.61,250.06 L 368.53,246.03 L 368.77,245.25 L 367.66,244.91 L 367.24,244.79 L 367.58,243.72 L 370.20,235.26 L 383.12,239.02 L 385.64,239.75 L 382.61,250.06 L 382.61,250.06"/>
<path d="M 352.95,230.34 L 347.06,228.65 L 342.74,227.42 L 340.32,235.53 L 346.99,237.43 L 347.37,235.99 L 350.92,237.07 L 352.95,230.34 L 352.95,230.34"/>
<path d="M 356.44,260.66 L 363.44,262.63 L 361.57,269.20 L 363.69,269.80 L 362.52,273.90 L 353.50,271.36 L 350.36,270.47 L 351.72,265.70 L 354.77,266.57 L 356.44,260.66 L 356.44,260.66"/>
<path d="M 337.90,243.62 L 340.91,244.49 L 344.59,245.53 L 346.99,237.43 L 340.32,235.53 L 337.90,243.62 L 337.90,243.62"/>
<path d="M 389.53,288.91 L 386.21,300.08 L 386.88,300.21 L 393.29,302.10 L 394.18,299.10 L 395.17,299.39 L 396.11,296.25"/>
<path d="M 396.11,293.53 L 395.96,293.49 L 396.11,293.00"/>
<path d="M 396.11,290.85 L 389.53,288.91 L 389.53,288.91"/>
<path d="M 392.41,241.73 L 396.11,242.78"/>
<path d="M 396.11,252.98 L 393.14,252.07 L 392.68,253.56 L 389.25,252.52 L 389.75,250.79 L 392.41,241.73 L 392.41,241.73"/>
<path d="M 393.29,277.05 L 389.53,288.91 L 396.11,290.85"/>
<path d="M 396.11,278.00 L 393.29,277.05 L 393.29,277.05"/>
<path d="M 334.62,253.58 L 331.35,265.11 L 340.90,267.80 L 344.17,256.28 L 334.62,253.58 L 334.62,253.58"/>
<path d="M 245.79,236.65 L 246.26,235.05 L 244.92,234.66 L 245.62,232.32 L 237.11,229.78 L 237.84,227.34 L 237.03,227.10 L 237.88,224.24 L 232.91,222.70 L 228.36,221.40 L 225.74,230.13 L 244.53,235.72 L 244.36,236.33 L 245.79,236.65 L 245.79,236.65"/>
<path d="M 232.46,250.43 L 233.46,250.74 L 228.28,267.78 L 215.71,263.97 L 220.90,246.93 L 232.46,250.43 L 232.46,250.43"/>
<path d="M 350.70,281.25 L 352.20,275.97 L 353.50,271.36 L 362.52,273.90 L 365.37,274.71 L 363.92,279.81 L 363.14,282.58 L 362.56,284.59 L 357.23,283.09 L 350.70,281.25 L 350.70,281.25"/>
<path d="M 330.69,317.59 L 332.30,310.68 L 336.39,311.58 L 334.74,318.45 L 330.69,317.59 L 330.69,317.59"/>
<path d="M 340.90,267.80 L 331.35,265.11 L 328.54,275.00 L 337.57,277.54 L 339.34,271.27 L 340.23,271.52 L 339.95,272.51 L 352.20,275.97 L 353.50,271.36 L 350.36,270.47 L 340.90,267.80 L 340.90,267.80"/>
<path d="M 391.20,323.62 L 380.42,320.40 L 381.96,313.73 L 392.86,316.13 L 391.20,323.62 L 391.20,323.62"/>
<path d="M 343.68,313.17 L 342.27,320.08 L 346.03,320.85 L 347.60,313.70 L 343.68,313.17 L 343.68,313.17"/>
<path d="M 362.56,284.59 L 359.60,295.05 L 364.36,296.39 L 367.32,285.94 L 362.56,284.59 L 362.56,284.59"/>
<path d="M 364.78,317.25 L 362.96,324.75 L 366.24,325.46 L 367.69,317.95 L 364.78,317.25 L 364.78,317.25"/>
<path d="M 367.69,317.95 L 366.24,325.46 L 374.02,327.11 L 375.64,319.49 L 367.69,317.95 L 367.69,317.95"/>
<path d="M 345.34,305.68 L 333.49,303.07 L 332.30,310.68 L 336.39,311.58 L 343.68,313.17 L 345.34,305.68 L 345.34,305.68"/>
<path d="M 337.03,288.52 L 336.23,291.31 L 335.66,293.35 L 347.63,296.73 L 349.00,291.89 L 347.69,291.52 L 337.03,288.52 L 337.03,288.52"/>
<path d="M 340.18,330.69 L 328.50,328.20 L 330.69,317.59 L 334.74,318.45 L 342.27,320.08 L 340.18,330.69 L 340.18,330.69"/>
<path d="M 389.61,330.19 L 391.09,324.12 L 395.31,325.05 L 393.25,332.72 L 389.19,331.79 L 389.61,330.19 L 389.61,330.19"/>
<path d="M 392.86,316.13 L 391.20,323.62 L 391.09,324.12 L 395.31,325.05 L 396.11,325.22"/>
<path d="M 396.11,316.84 L 392.86,316.13 L 392.86,316.13"/>
<path d="M 322.48,296.39 L 331.41,298.91 L 333.76,290.61 L 334.55,287.82 L 325.62,285.30 L 322.48,296.39 L 322.48,296.39"/>
<path d="M 351.60,333.15 L 340.18,330.69 L 342.27,320.08 L 346.03,320.85 L 353.95,322.34 L 353.79,322.88 L 351.60,333.15 L 351.60,333.15"/>
<path d="M 376.46,338.62 L 363.91,335.86 L 366.24,325.46 L 374.02,327.11 L 378.59,328.07 L 376.46,338.62 L 376.46,338.62"/>
<path d="M 381.96,313.73 L 369.42,310.98 L 367.69,317.95 L 375.64,319.49 L 380.42,320.40 L 381.96,313.73 L 381.96,313.73"/>
<path d="M 363.91,335.86 L 357.93,334.49 L 351.60,333.15 L 353.79,322.88 L 362.96,324.75 L 366.24,325.46 L 363.91,335.86 L 363.91,335.86"/>
<path d="M 369.42,310.98 L 356.70,308.18 L 355.34,315.30 L 364.78,317.25 L 367.69,317.95 L 369.42,310.98 L 369.42,310.98"/>
<path d="M 380.42,320.40 L 378.59,328.07 L 389.61,330.19 L 391.09,324.12 L 391.20,323.62 L 380.42,320.40 L 380.42,320.40"/>
<path d="M 356.70,308.18 L 345.34,305.68 L 343.68,313.17 L 347.60,313.70 L 355.34,315.30 L 356.70,308.18 L 356.70,308.18"/>
<path d="M 386.88,300.21 L 386.21,300.08 L 379.15,298.07 L 377.88,302.50 L 385.53,304.74 L 386.88,300.21 L 386.88,300.21"/>
<path d="M 387.36,341.01 L 376.46,338.62 L 378.59,328.07 L 389.61,330.19 L 389.19,331.79 L 387.36,341.01 L 387.36,341.01"/>
<path d="M 328.50,328.20 L 314.45,324.99 L 318.33,310.30 L 324.94,312.30 L 323.86,316.16 L 330.69,317.59 L 328.50,328.20 L 328.50,328.20"/>
<path d="M 340.91,244.49 L 340.34,246.45 L 339.52,246.22 L 338.80,248.71 L 339.72,248.97 L 339.17,250.89 L 355.09,255.40 L 356.57,250.21 L 357.06,248.50 L 354.04,247.64 L 353.88,248.17 L 344.59,245.53 L 340.91,244.49 L 340.91,244.49"/>
<path d="M 256.00,257.37 L 260.86,258.71 L 263.36,249.66 L 258.51,248.33 L 257.47,252.08 L 256.00,257.37 L 256.00,257.37"/>
<path d="M 222.85,280.29 L 221.90,284.67 L 224.71,285.27 L 225.66,280.89 L 222.85,280.29 L 222.85,280.29"/>
<path d="M 219.22,283.73 L 219.25,283.67 L 222.03,273.73 L 214.02,271.40 L 211.35,281.57 L 219.22,283.73 L 219.22,283.73"/>
<path d="M 221.22,293.54 L 230.75,296.37 L 235.17,297.63 L 232.96,304.57 L 232.40,306.65 L 218.12,302.89 L 221.22,293.54 L 221.22,293.54"/>
<path d="M 265.22,242.37 L 267.07,235.84 L 262.56,234.58 L 260.74,241.00 L 265.22,242.37 L 265.22,242.37"/>
<path d="M 218.12,302.89 L 205.84,299.73 L 211.35,281.57 L 219.22,283.73 L 216.93,292.10 L 221.22,293.54 L 218.12,302.89 L 218.12,302.89"/>
<path d="M 396.11,333.18 L 393.25,332.72 L 389.19,331.79 L 387.36,341.01 L 396.11,342.78"/>
<path d="M 382.83,395.63 L 381.14,400.00"/>
<path d="M 389.66,400.00 L 390.11,398.64 L 382.83,395.63 L 382.83,395.63"/>
<path d="M 370.78,385.68 L 371.15,388.66 L 377.75,387.86 L 376.91,376.68 L 369.94,377.38 L 370.78,385.68 L 370.78,385.68"/>
<path d="M 386.01,386.96 L 382.83,395.63 L 390.11,398.64 L 393.83,388.20 L 386.44,385.76 L 386.01,386.96 L 386.01,386.96"/>
<path d="M 351.11,379.78 L 351.83,387.65 L 352.52,387.89 L 352.85,389.86 L 358.64,391.75 L 356.95,379.08 L 351.11,379.78 L 351.11,379.78"/>
<path d="M 377.75,387.86 L 386.01,386.96 L 386.44,385.76 L 393.83,388.20 L 396.11,381.81"/>
<path d="M 396.11,375.25 L 393.97,374.46 L 376.91,376.68 L 377.75,387.86 L 377.75,387.86"/>
<path d="M 361.31,397.08 L 353.43,394.14 L 351.66,400.00"/>
<path d="M 368.15,400.00 L 361.31,397.08 L 361.31,397.08"/>
<path d="M 356.95,379.08 L 369.94,377.38 L 370.78,385.68 L 364.54,386.35 L 364.88,389.66 L 363.70,390.02 L 362.69,393.23 L 358.64,391.75 L 356.95,379.08 L 356.95,379.08"/>
<path d="M 198.05,345.87 L 200.61,344.66 L 198.43,340.37 L 198.05,340.71"/>
<path d="M 198.05,351.18 L 200.09,355.44 L 204.44,353.43 L 200.61,344.66 L 198.05,345.87"/>
<path d="M 198.05,336.88 L 199.41,337.28 L 198.91,339.81 L 198.43,340.37 L 198.05,340.71"/>
<path d="M 250.59,246.25 L 252.16,246.58 L 253.17,243.20 L 251.63,242.75 L 252.83,238.74 L 245.79,236.65 L 245.35,238.14 L 244.77,240.06 L 243.80,239.77 L 243.04,242.28 L 244.07,242.59 L 243.52,244.19 L 250.59,246.25 L 250.59,246.25"/>
<path d="M 245.79,236.65 L 244.36,236.33 L 244.53,235.72 L 225.74,230.13 L 223.41,238.36 L 233.27,241.07 L 233.86,238.43 L 235.53,238.66 L 236.48,237.20 L 243.57,239.28 L 243.75,238.19 L 245.35,238.14 L 245.79,236.65 L 245.79,236.65"/>
<path d="M 234.07,282.82 L 230.75,296.37 L 235.17,297.63 L 236.13,294.70 L 238.72,284.10 L 234.07,282.82 L 234.07,282.82"/>
<path d="M 265.22,242.37 L 260.74,241.00 L 259.15,246.60 L 263.66,247.87 L 265.22,242.37 L 265.22,242.37"/>
<path d="M 258.43,282.25 L 250.57,309.61 L 232.96,304.57 L 235.17,297.63 L 236.13,294.70 L 243.34,296.88 L 246.32,286.28 L 238.72,284.10 L 240.62,277.21 L 258.43,282.25 L 258.43,282.25"/>
<path d="M 241.07,252.87 L 236.05,269.24 L 243.29,271.45 L 248.31,255.08 L 241.07,252.87 L 241.07,252.87"/>
<path d="M 230.13,274.17 L 228.23,281.04 L 234.07,282.82 L 238.72,284.10 L 240.62,277.21 L 230.13,274.17 L 230.13,274.17"/>
<path d="M 220.90,246.93 L 223.41,238.36 L 233.27,241.07 L 232.49,243.66 L 234.36,244.22 L 232.46,250.43 L 220.90,246.93 L 220.90,246.93"/>
<path d="M 248.31,255.08 L 256.00,257.37 L 257.47,252.08 L 249.63,250.06 L 250.59,246.25 L 243.52,244.19 L 241.07,252.87 L 248.31,255.08 L 248.31,255.08"/>
<path d="M 234.64,217.15 L 232.91,222.70 L 237.88,224.24 L 238.38,224.39 L 238.53,223.92 L 244.82,225.87 L 246.41,220.78 L 234.64,217.15 L 234.64,217.15"/>
<path d="M 251.91,212.69 L 236.35,207.98 L 238.73,200.53 L 254.03,205.05 L 251.91,212.69 L 251.91,212.69"/>
<path d="M 355.09,255.40 L 363.88,257.90 L 365.36,252.70 L 356.57,250.21 L 355.09,255.40 L 355.09,255.40"/>
<path d="M 393.01,306.94 L 396.11,307.92"/>
<path d="M 396.11,302.93 L 394.35,302.41 L 393.01,306.94 L 393.01,306.94"/>
<path d="M 378.07,278.46 L 378.85,275.87 L 382.95,277.11 L 382.17,279.70 L 378.07,278.46 L 378.07,278.46"/>
<path d="M 396.11,312.46 L 395.93,313.10 L 396.11,313.15"/>
<path d="M 394.35,302.41 L 393.29,302.10 L 386.88,300.21 L 385.53,304.74 L 393.01,306.94 L 394.35,302.41 L 394.35,302.41"/>
<path d="M 385.64,239.75 L 392.41,241.73 L 389.75,250.79 L 384.16,249.16 L 383.80,250.41 L 382.61,250.06 L 385.64,239.75 L 385.64,239.75"/>
<path d="M 394.17,273.79 L 393.25,273.08 L 394.22,270.03 L 395.23,270.00 L 395.70,267.99 L 394.79,267.45 L 395.67,264.58 L 396.11,264.39"/>
<path d="M 396.11,278.00 L 393.29,277.05 L 394.17,273.79 L 394.17,273.79"/>
<path d="M 378.76,268.99 L 377.73,268.63 L 379.07,265.50 L 379.77,265.45 L 380.15,263.65 L 379.10,263.34 L 380.02,260.49 L 381.44,259.75 L 388.44,261.84 L 387.99,263.82 L 388.87,264.12 L 387.82,267.67 L 386.76,267.64 L 384.50,274.98 L 377.53,272.54 L 378.76,268.99 L 378.76,268.99"/>
<path d="M 363.92,279.81 L 368.63,281.14 L 367.84,283.91 L 363.14,282.58 L 363.92,279.81 L 363.92,279.81"/>
<path d="M 363.14,282.58 L 362.56,284.59 L 367.32,285.94 L 367.84,283.91 L 363.14,282.58 L 363.14,282.58"/>
<path d="M 367.74,266.62 L 367.00,268.92 L 371.17,270.26 L 371.91,267.97 L 367.74,266.62 L 367.74,266.62"/>
<path d="M 372.67,258.11 L 371.99,260.22 L 374.42,261.01 L 375.10,258.91 L 372.67,258.11 L 372.67,258.11"/>
<path d="M 335.35,288.04 L 337.03,288.52 L 336.23,291.31 L 333.76,290.61 L 334.55,287.82 L 335.35,288.04 L 335.35,288.04"/>
<path d="M 365.37,274.71 L 370.17,276.06 L 371.33,271.95 L 363.69,269.80 L 362.52,273.90 L 365.37,274.71 L 365.37,274.71"/>
<path d="M 389.01,267.96 L 388.08,270.47 L 391.47,271.71 L 391.87,270.61 L 392.84,270.97 L 393.64,268.80 L 392.29,268.30 L 392.01,269.06 L 389.01,267.96 L 389.01,267.96"/>
<path d="M 373.51,263.57 L 372.85,265.85 L 376.21,266.82 L 376.46,265.93 L 377.49,266.23 L 378.06,264.30 L 376.54,263.86 L 376.38,264.40 L 373.51,263.57 L 373.51,263.57"/>
<path d="M 325.62,285.30 L 328.54,275.00 L 337.57,277.54 L 338.11,277.69 L 350.70,281.25 L 357.23,283.09 L 354.31,293.39 L 349.00,291.89 L 347.69,291.52 L 349.18,286.25 L 339.37,283.48 L 339.76,282.09 L 337.25,281.37 L 335.35,288.04 L 334.55,287.82 L 325.62,285.30 L 325.62,285.30"/>
<path d="M 282.25,297.83 L 280.69,305.53 L 277.19,305.18 L 276.95,297.35 L 279.56,297.66 L 282.25,297.83 L 282.25,297.83"/>
<path d="M 308.17,220.70 L 327.47,226.26 L 325.03,234.67 L 305.73,229.10 L 308.17,220.70 L 308.17,220.70"/>
<path d="M 313.91,396.72 L 329.38,395.08 L 332.66,394.73 L 332.66,400.00"/>
<path d="M 312.69,400.00 L 313.91,396.72 L 313.91,396.72"/>
<path d="M 368.02,365.73 L 368.51,362.53 L 371.00,362.93 L 370.50,366.06 L 368.02,365.73 L 368.02,365.73"/>
<path d="M 390.65,200.00 L 389.64,203.27 L 385.84,202.16 L 386.49,200.00"/>
<path d="M 319.04,248.67 L 320.83,242.71 L 324.09,243.70 L 322.20,249.63 L 319.04,248.67 L 319.04,248.67"/>
<path d="M 229.56,341.96 L 226.43,340.99 L 227.63,337.70 L 230.30,328.75 L 235.44,330.71 L 236.93,331.70 L 238.62,333.23 L 240.54,335.40 L 241.28,336.81 L 239.18,337.77 L 238.04,335.82 L 235.74,333.71 L 234.86,333.07 L 234.51,332.95 L 233.88,332.89 L 233.26,332.87 L 232.81,332.99 L 232.22,333.29 L 231.76,333.69 L 230.58,337.76 L 229.97,340.23 L 229.56,341.96 L 229.56,341.96"/>
<path d="M 352.95,230.34 L 350.92,237.07 L 350.48,238.50 L 367.58,243.72 L 370.20,235.26 L 361.48,232.78 L 352.95,230.34 L 352.95,230.34"/>
</g>
<g stroke="#00b0d0" stroke-width="0.5">
<path d="M 200.95,359.16 L 198.05,353.78"/>
<path d="M 346.60,400.00 L 347.11,398.13 L 347.36,395.21 L 347.07,388.91 L 346.32,382.20"/>
<path d="M 346.32,382.20 L 345.98,378.43 L 328.03,380.74"/>
<path d="M 393.87,372.35 L 358.34,376.81 L 351.22,377.81"/>
<path d="M 351.22,377.81 L 345.98,378.43"/>
<path d="M 328.03,380.74 L 306.67,383.73 L 302.94,384.09"/>
<path d="M 396.11,372.09 L 393.87,372.35"/>
<path d="M 297.12,400.00 L 301.96,386.85 L 302.94,384.09"/>
<path d="M 211.21,396.48 L 200.95,359.16"/>
<path d="M 223.09,400.00 L 211.21,396.48"/>
</g>
<g stroke="#000000" stroke-width="0.6">
<path d="M 239.30,320.75 L 264.46,325.73"/>
<path d="M 229.30,200.00 L 227.28,206.73 L 209.59,265.59 L 209.06,267.38 L 204.10,284.69 L 198.54,305.29"/>
<path d="M 209.59,265.59 L 259.30,279.05 L 272.14,238.01 L 274.87,228.72 L 276.34,223.70 L 283.09,204.27"/>
<path d="M 316.47,297.90 L 363.31,306.90 L 392.72,314.02 L 396.11,315.23"/>
<path d="M 363.31,306.90 L 372.55,274.43"/>
<path d="M 347.62,375.17 L 349.19,391.99 L 348.71,400.00"/>
<path d="M 261.90,348.65 L 263.03,351.20 L 275.42,376.98 L 277.76,383.39"/>
<path d="M 306.97,329.00 L 298.92,327.10 L 261.09,319.44 L 248.15,316.75"/>
<path d="M 209.06,267.38 L 198.05,264.18"/>
<path d="M 273.68,342.53 L 272.48,344.69 L 272.29,347.59 L 273.00,350.32 L 275.42,353.79 L 279.17,355.77 L 283.41,355.81 L 288.22,353.98 L 289.87,350.77 L 291.40,347.14 L 289.34,343.07 L 286.95,340.13 L 283.55,338.46 L 279.77,338.33 L 276.26,339.77 L 273.68,342.53"/>
<path d="M 289.87,350.77 L 292.85,351.60"/>
<path d="M 272.48,344.69 L 268.09,343.51 L 256.85,339.78"/>
<path d="M 306.97,329.00 L 305.37,332.25 L 302.85,336.30"/>
<path d="M 302.85,336.30 L 299.27,342.02 L 292.85,351.60 L 287.46,362.81 L 283.70,370.40 L 277.76,383.39"/>
<path d="M 393.79,400.00 L 396.11,393.82"/>
<path d="M 396.11,347.49 L 368.30,341.80 L 336.46,335.26"/>
<path d="M 278.95,200.00 L 278.04,202.86"/>
<path d="M 198.05,311.02 L 203.40,312.42 L 222.25,316.89"/>
<path d="M 298.92,327.10 L 297.05,334.33"/>
<path d="M 339.01,220.70 L 345.10,200.00"/>
<path d="M 203.40,312.42 L 204.83,306.76"/>
<path d="M 303.14,360.10 L 305.63,354.13 L 306.74,350.40 L 307.45,344.79 L 307.90,338.03"/>
<path d="M 264.46,325.73 L 278.48,328.60 L 292.28,332.39 L 297.05,334.33 L 302.85,336.30"/>
<path d="M 352.84,346.94 L 365.38,348.59 L 389.98,353.58"/>
<path d="M 204.10,284.69 L 198.05,283.65"/>
<path d="M 360.37,373.36 L 362.43,373.14 L 364.99,372.86 L 366.88,372.65 L 381.00,371.12 L 383.14,370.93"/>
<path d="M 248.15,316.75 L 204.83,306.76"/>
<path d="M 222.25,316.89 L 239.30,320.75"/>
<path d="M 204.83,306.76 L 198.54,305.29"/>
<path d="M 374.09,200.00 L 373.05,203.21"/>
<path d="M 361.44,200.00 L 373.05,203.21 L 393.95,209.13"/>
<path d="M 272.14,238.01 L 273.42,238.37 L 306.29,247.65 L 306.85,252.30 L 305.76,265.87 L 303.58,291.05"/>
<path d="M 276.34,223.70 L 322.84,236.92"/>
<path d="M 360.37,373.36 L 357.76,373.73 L 355.70,374.02 L 347.62,375.17 L 340.95,376.24 L 339.68,376.45 L 320.52,379.09 L 305.31,380.86 L 299.40,381.13"/>
<path d="M 298.10,400.00 L 303.19,386.55"/>
<path d="M 392.81,369.91 L 396.11,370.17"/>
<path d="M 341.35,386.73 L 340.63,381.10"/>
<path d="M 340.63,381.10 L 339.68,376.45"/>
<path d="M 198.54,305.29 L 198.05,305.17"/>
<path d="M 203.50,400.00 L 198.05,398.07"/>
<path d="M 352.84,346.94 L 359.64,353.91 L 362.06,357.37 L 362.23,359.58 L 362.26,361.47"/>
<path d="M 306.85,252.30 L 318.55,256.20 L 327.87,259.08"/>
<path d="M 306.97,329.00 L 308.90,322.68 L 313.36,308.09 L 316.47,297.90 L 318.38,291.55 L 327.87,259.08"/>
<path d="M 336.46,335.26 L 317.38,331.39 L 306.97,329.00"/>
<path d="M 277.76,383.39 L 269.95,400.00"/>
<path d="M 284.19,400.00 L 293.41,380.43 L 297.30,372.68 L 299.50,368.36"/>
<path d="M 299.40,381.13 L 293.41,380.43"/>
<path d="M 294.43,367.91 L 295.25,368.28 L 296.09,368.65 L 281.53,400.00"/>
<path d="M 279.20,400.00 L 294.43,367.91"/>
<path d="M 274.06,400.00 L 289.75,366.23 L 288.66,365.74 L 287.76,365.34 L 283.42,374.56 L 276.70,388.82 L 271.43,400.00"/>
<path d="M 287.46,362.81 L 289.63,363.93 L 291.81,364.99 L 293.87,365.95 L 295.98,366.73 L 299.50,368.36 L 308.63,371.97"/>
<path d="M 326.43,356.20 L 336.08,357.17 L 342.67,358.21 L 346.83,359.12 L 357.42,361.63 L 355.70,374.02"/>
<path d="M 262.96,309.29 L 262.80,313.93 L 261.09,319.44"/>
<path d="M 303.58,291.05 L 301.24,299.41 L 300.92,302.27 L 299.40,305.54 L 296.31,309.57 L 291.22,311.29 L 279.19,310.46 L 262.96,309.29 L 261.96,300.06 L 266.76,287.55"/>
<path d="M 396.11,236.89 L 339.01,220.70 L 283.09,204.27 L 278.04,202.86 L 268.02,200.00"/>
<path d="M 364.51,361.73 L 396.11,367.07"/>
<path d="M 396.11,372.34 L 393.76,371.32 L 362.07,375.51 L 362.43,373.14 L 363.87,365.22 L 364.51,361.73"/>
<path d="M 302.85,336.30 L 307.90,338.03"/>
<path d="M 299.50,368.36 L 303.14,360.10"/>
<path d="M 289.63,363.93 L 288.66,365.74"/>
<path d="M 295.25,368.28 L 295.98,366.73"/>
<path d="M 305.31,380.86 L 308.63,371.97 L 315.14,356.06 L 315.78,352.55 L 316.13,349.94 L 316.67,346.75 L 313.75,346.07"/>
<path d="M 389.98,353.58 L 396.11,354.79"/>
<path d="M 299.27,342.02 L 307.45,344.79 L 313.75,346.07"/>
<path d="M 329.26,343.78 L 341.04,345.68 L 352.84,346.94"/>
<path d="M 315.22,340.59 L 329.26,343.78"/>
<path d="M 362.26,361.47 L 362.26,362.69 L 360.37,373.36"/>
<path d="M 307.90,338.03 L 306.97,329.00"/>
<path d="M 383.14,370.93 L 392.81,369.91"/>
<path d="M 279.56,297.66 L 279.19,310.46"/>
<path d="M 292.90,297.41 L 293.99,302.62"/>
<path d="M 291.18,297.45 L 292.90,297.41"/>
<path d="M 296.31,309.57 L 293.99,302.62"/>
<path d="M 313.36,308.09 L 308.12,306.78 L 296.31,309.57"/>
<path d="M 293.75,264.47 L 299.39,265.04"/>
<path d="M 295.29,249.35 L 293.75,264.47"/>
<path d="M 293.75,264.47 L 290.43,264.03"/>
<path d="M 327.87,259.08 L 330.54,249.87 L 333.42,239.94 L 339.01,220.70"/>
<path d="M 278.93,246.39 L 281.11,246.63"/>
<path d="M 295.29,249.35 L 294.23,248.11 L 290.08,247.64"/>
<path d="M 290.08,247.64 L 287.53,247.37"/>
<path d="M 287.53,247.37 L 284.86,247.09 L 281.11,246.63"/>
<path d="M 284.76,248.22 L 284.86,247.09"/>
<path d="M 306.97,329.00 L 301.25,320.88 L 298.09,313.43 L 296.31,309.57"/>
<path d="M 315.22,340.59 L 317.38,331.39"/>
<path d="M 350.56,255.66 L 348.94,261.40"/>
<path d="M 330.54,249.87 L 341.20,252.96 L 350.56,255.66 L 366.83,260.37 L 364.53,268.30"/>
<path d="M 322.84,236.92 L 333.42,239.94"/>
<path d="M 259.30,279.05 L 262.43,281.29 L 260.14,298.51 L 261.96,300.06"/>
<path d="M 274.87,228.72 L 236.41,216.88 L 238.48,210.18 L 227.28,206.73"/>
<path d="M 239.30,320.75 L 250.22,331.54 L 256.85,339.78 L 261.90,348.65"/>
<path d="M 324.93,356.13 L 326.43,356.20"/>
<path d="M 315.14,356.06 L 320.94,355.74 L 324.93,356.13"/>
<path d="M 304.40,383.33 L 305.31,380.86"/>
<path d="M 303.19,386.55 L 304.40,383.33"/>
<path d="M 307.90,338.03 L 315.22,340.59"/>
<path d="M 313.75,346.07 L 315.22,340.59"/>
</g>
</g>
<g fill="none" stroke="#2040ff" stroke-width="0.4" stroke-dasharray="3,2">
<line x1="198.05" y1="400.00" x2="198.05" y2="200.00"/>
<line x1="396.11" y1="400.00" x2="396.11" y2="200.00"/>
<line x1="198.05" y1="400.00" x2="396.11" y2="400.00"/>
<line x1="198.05" y1="200.00" x2="396.11" y2="200.00"/>
</g>
<rect x="198.05" y="200.00" width="198.05" height="200.00" fill="none" stroke="#ff0000" stroke-width="0.4"/>
</svg>